<svg id="visual" viewBox="0 0 900 600" width="900" height="600" xmlns="http://www.w3.org/2000/svg" xmlns:xlink="http://www.w3.org/1999/xlink" version="1.1"><path d="M0 378L21.5 384.5C43 391 86 404 128.8 414.5C171.7 425 214.3 433 257.2 432.2C300 431.3 343 421.7 385.8 411.3C428.7 401 471.3 390 514.2 390.5C557 391 600 403 642.8 408.5C685.7 414 728.3 413 771.2 409.8C814 406.7 857 401.3 878.5 398.7L900 396L900 601L878.5 601C857 601 814 601 771.2 601C728.3 601 685.7 601 642.8 601C600 601 557 601 514.2 601C471.3 601 428.7 601 385.8 601C343 601 300 601 257.2 601C214.3 601 171.7 601 128.8 601C86 601 43 601 21.5 601L0 601Z" fill="#fa7268"></path><path d="M0 422L21.5 424.2C43 426.3 86 430.7 128.8 428C171.7 425.3 214.3 415.7 257.2 412.5C300 409.3 343 412.7 385.8 413.2C428.7 413.7 471.3 411.3 514.2 421.8C557 432.3 600 455.7 642.8 462.2C685.7 468.7 728.3 458.3 771.2 452.8C814 447.3 857 446.7 878.5 446.3L900 446L900 601L878.5 601C857 601 814 601 771.2 601C728.3 601 685.7 601 642.8 601C600 601 557 601 514.2 601C471.3 601 428.7 601 385.8 601C343 601 300 601 257.2 601C214.3 601 171.7 601 128.8 601C86 601 43 601 21.5 601L0 601Z" fill="#ef5f67"></path><path d="M0 509L21.5 501.7C43 494.3 86 479.7 128.8 475.7C171.7 471.7 214.3 478.3 257.2 482.8C300 487.3 343 489.7 385.8 485.3C428.7 481 471.3 470 514.2 464.3C557 458.7 600 458.3 642.8 459.7C685.7 461 728.3 464 771.2 470C814 476 857 485 878.5 489.5L900 494L900 601L878.5 601C857 601 814 601 771.2 601C728.3 601 685.7 601 642.8 601C600 601 557 601 514.2 601C471.3 601 428.7 601 385.8 601C343 601 300 601 257.2 601C214.3 601 171.7 601 128.8 601C86 601 43 601 21.5 601L0 601Z" fill="#e34c67"></path><path d="M0 482L21.5 488.2C43 494.3 86 506.7 128.8 515C171.7 523.3 214.3 527.7 257.2 522.5C300 517.3 343 502.7 385.8 497.7C428.7 492.7 471.3 497.3 514.2 501.7C557 506 600 510 642.8 506.8C685.7 503.7 728.3 493.3 771.2 488.2C814 483 857 483 878.5 483L900 483L900 601L878.5 601C857 601 814 601 771.2 601C728.3 601 685.7 601 642.8 601C600 601 557 601 514.2 601C471.3 601 428.7 601 385.8 601C343 601 300 601 257.2 601C214.3 601 171.7 601 128.8 601C86 601 43 601 21.5 601L0 601Z" fill="#d53867"></path><path d="M0 541L21.5 542.3C43 543.7 86 546.3 128.8 547C171.7 547.7 214.3 546.3 257.2 550.5C300 554.7 343 564.3 385.8 566.5C428.7 568.7 471.3 563.3 514.2 557.2C557 551 600 544 642.8 543.8C685.7 543.7 728.3 550.3 771.2 554.8C814 559.3 857 561.7 878.5 562.8L900 564L900 601L878.5 601C857 601 814 601 771.2 601C728.3 601 685.7 601 642.8 601C600 601 557 601 514.2 601C471.3 601 428.7 601 385.8 601C343 601 300 601 257.2 601C214.3 601 171.7 601 128.8 601C86 601 43 601 21.5 601L0 601Z" fill="#c62368"></path></svg>